<svg id="visual" viewBox="0 0 600 600" width="600" height="600" xmlns="http://www.w3.org/2000/svg" xmlns:xlink="http://www.w3.org/1999/xlink" version="1.1"><rect x="0" y="0" width="600" height="600" fill="#1b0b56"></rect><defs><linearGradient id="grad1_0" x1="0%" y1="100%" x2="100%" y2="0%"><stop offset="30%" stop-color="#bff6fd" stop-opacity="1"></stop><stop offset="70%" stop-color="#bff6fd" stop-opacity="1"></stop></linearGradient></defs><defs><linearGradient id="grad1_1" x1="0%" y1="100%" x2="100%" y2="0%"><stop offset="30%" stop-color="#bff6fd" stop-opacity="1"></stop><stop offset="70%" stop-color="#92d5e8" stop-opacity="1"></stop></linearGradient></defs><defs><linearGradient id="grad1_2" x1="0%" y1="100%" x2="100%" y2="0%"><stop offset="30%" stop-color="#67b4d4" stop-opacity="1"></stop><stop offset="70%" stop-color="#92d5e8" stop-opacity="1"></stop></linearGradient></defs><defs><linearGradient id="grad1_3" x1="0%" y1="100%" x2="100%" y2="0%"><stop offset="30%" stop-color="#67b4d4" stop-opacity="1"></stop><stop offset="70%" stop-color="#4193c0" stop-opacity="1"></stop></linearGradient></defs><defs><linearGradient id="grad1_4" x1="0%" y1="100%" x2="100%" y2="0%"><stop offset="30%" stop-color="#2071ab" stop-opacity="1"></stop><stop offset="70%" stop-color="#4193c0" stop-opacity="1"></stop></linearGradient></defs><defs><linearGradient id="grad1_5" x1="0%" y1="100%" x2="100%" y2="0%"><stop offset="30%" stop-color="#2071ab" stop-opacity="1"></stop><stop offset="70%" stop-color="#0e5092" stop-opacity="1"></stop></linearGradient></defs><defs><linearGradient id="grad1_6" x1="0%" y1="100%" x2="100%" y2="0%"><stop offset="30%" stop-color="#132f76" stop-opacity="1"></stop><stop offset="70%" stop-color="#0e5092" stop-opacity="1"></stop></linearGradient></defs><defs><linearGradient id="grad1_7" x1="0%" y1="100%" x2="100%" y2="0%"><stop offset="30%" stop-color="#132f76" stop-opacity="1"></stop><stop offset="70%" stop-color="#1b0b56" stop-opacity="1"></stop></linearGradient></defs><defs><linearGradient id="grad2_0" x1="0%" y1="100%" x2="100%" y2="0%"><stop offset="30%" stop-color="#bff6fd" stop-opacity="1"></stop><stop offset="70%" stop-color="#bff6fd" stop-opacity="1"></stop></linearGradient></defs><defs><linearGradient id="grad2_1" x1="0%" y1="100%" x2="100%" y2="0%"><stop offset="30%" stop-color="#92d5e8" stop-opacity="1"></stop><stop offset="70%" stop-color="#bff6fd" stop-opacity="1"></stop></linearGradient></defs><defs><linearGradient id="grad2_2" x1="0%" y1="100%" x2="100%" y2="0%"><stop offset="30%" stop-color="#92d5e8" stop-opacity="1"></stop><stop offset="70%" stop-color="#67b4d4" stop-opacity="1"></stop></linearGradient></defs><defs><linearGradient id="grad2_3" x1="0%" y1="100%" x2="100%" y2="0%"><stop offset="30%" stop-color="#4193c0" stop-opacity="1"></stop><stop offset="70%" stop-color="#67b4d4" stop-opacity="1"></stop></linearGradient></defs><defs><linearGradient id="grad2_4" x1="0%" y1="100%" x2="100%" y2="0%"><stop offset="30%" stop-color="#4193c0" stop-opacity="1"></stop><stop offset="70%" stop-color="#2071ab" stop-opacity="1"></stop></linearGradient></defs><defs><linearGradient id="grad2_5" x1="0%" y1="100%" x2="100%" y2="0%"><stop offset="30%" stop-color="#0e5092" stop-opacity="1"></stop><stop offset="70%" stop-color="#2071ab" stop-opacity="1"></stop></linearGradient></defs><defs><linearGradient id="grad2_6" x1="0%" y1="100%" x2="100%" y2="0%"><stop offset="30%" stop-color="#0e5092" stop-opacity="1"></stop><stop offset="70%" stop-color="#132f76" stop-opacity="1"></stop></linearGradient></defs><defs><linearGradient id="grad2_7" x1="0%" y1="100%" x2="100%" y2="0%"><stop offset="30%" stop-color="#1b0b56" stop-opacity="1"></stop><stop offset="70%" stop-color="#132f76" stop-opacity="1"></stop></linearGradient></defs><g transform="translate(600, 600)"><path d="M-339.4 0C-306.7 -11.2 -274.1 -22.3 -275.2 -39.6C-276.3 -56.8 -311.1 -80.1 -298.4 -87.6C-285.7 -95.1 -225.5 -86.8 -211 -96.4C-196.5 -106 -227.7 -133.4 -233 -149.8C-238.3 -166.1 -217.7 -171.2 -200.3 -173.5C-182.8 -175.9 -168.5 -175.4 -162.4 -187.4C-156.3 -199.4 -158.3 -223.8 -147.1 -228.8C-135.8 -233.8 -111.1 -219.4 -93.1 -203.8C-75 -188.1 -63.4 -171.3 -58.9 -200.5C-54.4 -229.8 -56.9 -305.1 -48.3 -336C-39.7 -366.8 -19.8 -353.1 0 -339.4L0 0Z" fill="#181e67"></path><path d="M-297 0C-268.4 -9.8 -239.8 -19.5 -240.8 -34.6C-241.7 -49.7 -272.2 -70.1 -261.1 -76.7C-250 -83.2 -197.3 -75.9 -184.7 -84.3C-172 -92.7 -199.3 -116.8 -203.9 -131C-208.5 -145.3 -190.5 -149.8 -175.2 -151.8C-160 -153.9 -147.5 -153.5 -142.1 -164C-136.7 -174.5 -138.5 -195.8 -128.7 -200.2C-118.8 -204.6 -97.3 -192 -81.4 -178.3C-65.6 -164.6 -55.5 -149.9 -51.5 -175.5C-47.6 -201.1 -49.8 -267 -42.3 -294C-34.7 -320.9 -17.4 -309 0 -297L0 0Z" fill="#0f4085"></path><path d="M-254.6 0C-230.1 -8.4 -205.6 -16.7 -206.4 -29.7C-207.2 -42.6 -233.3 -60.1 -223.8 -65.7C-214.3 -71.3 -169.1 -65.1 -158.3 -72.3C-147.4 -79.5 -170.8 -100.1 -174.8 -112.3C-178.7 -124.5 -163.3 -128.4 -150.2 -130.2C-137.1 -131.9 -126.4 -131.6 -121.8 -140.6C-117.2 -149.6 -118.8 -167.9 -110.3 -171.6C-101.8 -175.4 -83.4 -164.5 -69.8 -152.8C-56.2 -141.1 -47.5 -128.5 -44.2 -150.4C-40.8 -172.3 -42.7 -228.8 -36.2 -252C-29.8 -275.1 -14.9 -264.8 0 -254.6L0 0Z" fill="#14619f"></path><path d="M-212.1 0C-191.7 -7 -171.3 -14 -172 -24.7C-172.7 -35.5 -194.4 -50.1 -186.5 -54.8C-178.6 -59.4 -141 -54.2 -131.9 -60.2C-122.8 -66.2 -142.3 -83.4 -145.6 -93.6C-149 -103.8 -136.1 -107 -125.2 -108.5C-114.3 -109.9 -105.3 -109.6 -101.5 -117.1C-97.7 -124.6 -99 -139.9 -91.9 -143C-84.9 -146.1 -69.5 -137.1 -58.2 -127.3C-46.8 -117.6 -39.6 -107.1 -36.8 -125.3C-34 -143.6 -35.6 -190.7 -30.2 -210C-24.8 -229.2 -12.4 -220.7 0 -212.1L0 0Z" fill="#3082b6"></path><path d="M-169.7 0C-153.4 -5.6 -137 -11.2 -137.6 -19.8C-138.1 -28.4 -155.5 -40.1 -149.2 -43.8C-142.9 -47.6 -112.8 -43.4 -105.5 -48.2C-98.3 -53 -113.9 -66.7 -116.5 -74.9C-119.2 -83 -108.9 -85.6 -100.1 -86.8C-91.4 -87.9 -84.3 -87.7 -81.2 -93.7C-78.1 -99.7 -79.2 -111.9 -73.5 -114.4C-67.9 -116.9 -55.6 -109.7 -46.5 -101.9C-37.5 -94.1 -31.7 -85.6 -29.4 -100.3C-27.2 -114.9 -28.5 -152.6 -24.2 -168C-19.8 -183.4 -9.9 -176.5 0 -169.7L0 0Z" fill="#54a3ca"></path><path d="M-127.3 0C-115 -4.2 -102.8 -8.4 -103.2 -14.8C-103.6 -21.3 -116.7 -30 -111.9 -32.9C-107.1 -35.7 -84.6 -32.5 -79.1 -36.1C-73.7 -39.7 -85.4 -50 -87.4 -56.2C-89.4 -62.3 -81.6 -64.2 -75.1 -65.1C-68.6 -66 -63.2 -65.8 -60.9 -70.3C-58.6 -74.8 -59.4 -83.9 -55.1 -85.8C-50.9 -87.7 -41.7 -82.3 -34.9 -76.4C-28.1 -70.5 -23.8 -64.2 -22.1 -75.2C-20.4 -86.2 -21.4 -114.4 -18.1 -126C-14.9 -137.5 -7.4 -132.4 0 -127.3L0 0Z" fill="#7cc5de"></path><path d="M-84.9 0C-76.7 -2.8 -68.5 -5.6 -68.8 -9.9C-69.1 -14.2 -77.8 -20 -74.6 -21.9C-71.4 -23.8 -56.4 -21.7 -52.8 -24.1C-49.1 -26.5 -56.9 -33.4 -58.3 -37.4C-59.6 -41.5 -54.4 -42.8 -50.1 -43.4C-45.7 -44 -42.1 -43.9 -40.6 -46.9C-39.1 -49.9 -39.6 -56 -36.8 -57.2C-33.9 -58.5 -27.8 -54.8 -23.3 -50.9C-18.7 -47 -15.8 -42.8 -14.7 -50.1C-13.6 -57.4 -14.2 -76.3 -12.1 -84C-9.9 -91.7 -5 -88.3 0 -84.9L0 0Z" fill="#a8e6f2"></path><path d="M-42.4 0C-38.3 -1.4 -34.3 -2.8 -34.4 -4.9C-34.5 -7.1 -38.9 -10 -37.3 -11C-35.7 -11.9 -28.2 -10.8 -26.4 -12C-24.6 -13.2 -28.5 -16.7 -29.1 -18.7C-29.8 -20.8 -27.2 -21.4 -25 -21.7C-22.9 -22 -21.1 -21.9 -20.3 -23.4C-19.5 -24.9 -19.8 -28 -18.4 -28.6C-17 -29.2 -13.9 -27.4 -11.6 -25.5C-9.4 -23.5 -7.9 -21.4 -7.4 -25.1C-6.8 -28.7 -7.1 -38.1 -6 -42C-5 -45.8 -2.5 -44.1 0 -42.4L0 0Z" fill="#bff6fd"></path></g><g transform="translate(0, 0)"><path d="M339.4 0C288.8 8.6 238.1 17.1 245.5 35.3C252.8 53.5 318.1 81.3 325.7 95.6C333.2 110 283.1 111 261.1 119.2C239 127.5 245.1 143.1 240.6 154.6C236.1 166.2 221.1 173.7 210.1 182.1C199.1 190.4 192.1 199.6 190.6 219.9C189 240.2 193 271.5 182.7 284.3C172.5 297.1 148.1 291.4 125.5 274.7C102.8 258 82 230.4 70.2 238.9C58.3 247.4 55.4 292 45.3 314.8C35.1 337.5 17.5 338.5 0 339.4L0 0Z" fill="#181e67"></path><path d="M297 0C252.7 7.5 208.4 15 214.8 30.9C221.2 46.8 278.3 71.1 285 83.7C291.6 96.2 247.7 97.1 228.4 104.3C209.1 111.6 214.4 125.2 210.5 135.3C206.6 145.4 193.5 152 183.8 159.3C174.2 166.6 168.1 174.7 166.7 192.4C165.4 210.2 168.9 237.6 159.9 248.8C150.9 260 129.6 255 109.8 240.4C90 225.8 71.7 201.6 61.4 209C51 216.5 48.5 255.5 39.6 275.4C30.7 295.3 15.3 296.2 0 297L0 0Z" fill="#0f4085"></path><path d="M254.6 0C216.6 6.4 178.6 12.8 184.1 26.5C189.6 40.1 238.6 60.9 244.2 71.7C249.9 82.5 212.3 83.2 195.8 89.4C179.3 95.6 183.8 107.3 180.4 116C177.1 124.6 165.8 130.3 157.6 136.5C149.3 142.8 144.1 149.7 142.9 164.9C141.8 180.2 144.7 203.7 137.1 213.3C129.4 222.9 111.1 218.5 94.1 206C77.1 193.5 61.5 172.8 52.6 179.2C43.7 185.6 41.6 219 33.9 236.1C26.3 253.1 13.1 253.9 0 254.6L0 0Z" fill="#14619f"></path><path d="M212.1 0C180.5 5.4 148.8 10.7 153.4 22.1C158 33.4 198.8 50.8 203.5 59.8C208.3 68.7 176.9 69.3 163.2 74.5C149.4 79.7 153.2 89.4 150.4 96.6C147.6 103.9 138.2 108.6 131.3 113.8C124.4 119 120.1 124.8 119.1 137.5C118.1 150.1 120.6 169.7 114.2 177.7C107.8 185.7 92.6 182.1 78.4 171.7C64.3 161.3 51.2 144 43.8 149.3C36.4 154.6 34.7 182.5 28.3 196.7C21.9 211 11 211.5 0 212.1L0 0Z" fill="#3082b6"></path><path d="M169.7 0C144.4 4.3 119.1 8.6 122.7 17.6C126.4 26.7 159 40.6 162.8 47.8C166.6 55 141.6 55.5 130.5 59.6C119.5 63.7 122.5 71.5 120.3 77.3C118.1 83.1 110.6 86.8 105 91C99.5 95.2 96 99.8 95.3 110C94.5 120.1 96.5 135.8 91.4 142.2C86.2 148.6 74 145.7 62.7 137.4C51.4 129 41 115.2 35.1 119.5C29.2 123.7 27.7 146 22.6 157.4C17.5 168.8 8.8 169.2 0 169.7L0 0Z" fill="#54a3ca"></path><path d="M127.3 0C108.3 3.2 89.3 6.4 92.1 13.2C94.8 20.1 119.3 30.5 122.1 35.9C125 41.2 106.2 41.6 97.9 44.7C89.6 47.8 91.9 53.7 90.2 58C88.5 62.3 82.9 65.1 78.8 68.3C74.7 71.4 72 74.9 71.5 82.5C70.9 90.1 72.4 101.8 68.5 106.6C64.7 111.4 55.5 109.3 47 103C38.6 96.8 30.7 86.4 26.3 89.6C21.9 92.8 20.8 109.5 17 118C13.1 126.6 6.6 126.9 0 127.3L0 0Z" fill="#7cc5de"></path><path d="M84.9 0C72.2 2.1 59.5 4.3 61.4 8.8C63.2 13.4 79.5 20.3 81.4 23.9C83.3 27.5 70.8 27.7 65.3 29.8C59.8 31.9 61.3 35.8 60.1 38.7C59 41.5 55.3 43.4 52.5 45.5C49.8 47.6 48 49.9 47.6 55C47.3 60.1 48.2 67.9 45.7 71.1C43.1 74.3 37 72.8 31.4 68.7C25.7 64.5 20.5 57.6 17.5 59.7C14.6 61.9 13.9 73 11.3 78.7C8.8 84.4 4.4 84.6 0 84.9L0 0Z" fill="#a8e6f2"></path><path d="M42.4 0C36.1 1.1 29.8 2.1 30.7 4.4C31.6 6.7 39.8 10.2 40.7 12C41.7 13.7 35.4 13.9 32.6 14.9C29.9 15.9 30.6 17.9 30.1 19.3C29.5 20.8 27.6 21.7 26.3 22.8C24.9 23.8 24 25 23.8 27.5C23.6 30 24.1 33.9 22.8 35.5C21.6 37.1 18.5 36.4 15.7 34.3C12.9 32.3 10.2 28.8 8.8 29.9C7.3 30.9 6.9 36.5 5.7 39.3C4.4 42.2 2.2 42.3 0 42.4L0 0Z" fill="#bff6fd"></path></g></svg>