<svg  xmlns="http://www.w3.org/2000/svg" xmlns:xlink="http://www.w3.org/1999/xlink" version="1.1">
    <rect x="0" y="0" width="1500" height="1500" fill="#1b0b56"></rect>
    <defs>
        <linearGradient id="grad1_0" x1="0%" y1="100%" x2="100%" y2="0%">
            <stop offset="30%" stop-color="#bff6fd" stop-opacity="1"></stop>
            <stop offset="70%" stop-color="#bff6fd" stop-opacity="1"></stop>
        </linearGradient>
    </defs>
    <defs>
        <linearGradient id="grad1_1" x1="0%" y1="100%" x2="100%" y2="0%">
            <stop offset="30%" stop-color="#bff6fd" stop-opacity="1"></stop>
            <stop offset="70%" stop-color="#72bcd9" stop-opacity="1"></stop>
        </linearGradient>
    </defs>
    <defs>
        <linearGradient id="grad1_2" x1="0%" y1="100%" x2="100%" y2="0%">
            <stop offset="30%" stop-color="#3082b6" stop-opacity="1"></stop>
            <stop offset="70%" stop-color="#72bcd9" stop-opacity="1"></stop>
        </linearGradient>
    </defs>
    <defs>
        <linearGradient id="grad1_3" x1="0%" y1="100%" x2="100%" y2="0%">
            <stop offset="30%" stop-color="#3082b6" stop-opacity="1"></stop>
            <stop offset="70%" stop-color="#0d488c" stop-opacity="1"></stop>
        </linearGradient>
    </defs>
    <defs>
        <linearGradient id="grad1_4" x1="0%" y1="100%" x2="100%" y2="0%">
            <stop offset="30%" stop-color="#1b0b56" stop-opacity="1"></stop>
            <stop offset="70%" stop-color="#0d488c" stop-opacity="1"></stop>
        </linearGradient>
    </defs>
    <defs>
        <linearGradient id="grad2_0" x1="0%" y1="100%" x2="100%" y2="0%">
            <stop offset="30%" stop-color="#bff6fd" stop-opacity="1"></stop>
            <stop offset="70%" stop-color="#bff6fd" stop-opacity="1"></stop>
        </linearGradient>
    </defs>
    <defs>
        <linearGradient id="grad2_1" x1="0%" y1="100%" x2="100%" y2="0%">
            <stop offset="30%" stop-color="#72bcd9" stop-opacity="1"></stop>
            <stop offset="70%" stop-color="#bff6fd" stop-opacity="1"></stop>
        </linearGradient>
    </defs>
    <defs>
        <linearGradient id="grad2_2" x1="0%" y1="100%" x2="100%" y2="0%">
            <stop offset="30%" stop-color="#72bcd9" stop-opacity="1"></stop>
            <stop offset="70%" stop-color="#3082b6" stop-opacity="1"></stop>
        </linearGradient>
    </defs>
    <defs>
        <linearGradient id="grad2_3" x1="0%" y1="100%" x2="100%" y2="0%">
            <stop offset="30%" stop-color="#0d488c" stop-opacity="1"></stop>
            <stop offset="70%" stop-color="#3082b6" stop-opacity="1"></stop>
        </linearGradient>
    </defs>
    <defs>
        <linearGradient id="grad2_4" x1="0%" y1="100%" x2="100%" y2="0%">
            <stop offset="30%" stop-color="#0d488c" stop-opacity="1"></stop>
            <stop offset="70%" stop-color="#1b0b56" stop-opacity="1"></stop>
        </linearGradient>
    </defs>
    <g class="visual" transform="translate(1500, 1500)">
        <path id="blob1"
            d="M-689.4 0C-647.3 -35.8 -605.2 -71.6 -605.1 -120.4C-605 -169.2 -647 -231 -607 -251.4C-567 -271.9 -445.2 -250.9 -404.1 -270C-363 -289.1 -402.6 -348.2 -419.3 -419.3C-436 -490.4 -429.8 -573.4 -383 -573.2C-336.2 -573 -248.9 -489.6 -202.1 -487.8C-155.2 -486 -148.9 -565.8 -121.9 -613C-95 -660.2 -47.5 -674.8 0 -689.4L0 0Z"
            fill="#152b72"></path>
        <path id="blob2"
            d="M-551.5 0C-517.9 -28.6 -484.2 -57.3 -484.1 -96.3C-484 -135.3 -517.6 -184.8 -485.6 -201.1C-453.6 -217.5 -356.2 -200.7 -323.3 -216C-290.4 -231.3 -322.1 -278.6 -335.5 -335.5C-348.8 -392.3 -343.8 -458.7 -306.4 -458.6C-269 -458.4 -199.1 -391.7 -161.6 -390.2C-124.2 -388.8 -119.1 -452.6 -97.5 -490.4C-76 -528.2 -38 -539.8 0 -551.5L0 0Z"
            fill="#1765a2"></path>
        <path id="blob3"
            d="M-413.7 0C-388.4 -21.5 -363.1 -42.9 -363.1 -72.2C-363 -101.5 -388.2 -138.6 -364.2 -150.9C-340.2 -163.1 -267.1 -150.5 -242.5 -162C-217.8 -173.5 -241.6 -208.9 -251.6 -251.6C-261.6 -294.2 -257.9 -344.1 -229.8 -343.9C-201.7 -343.8 -149.3 -293.8 -121.2 -292.7C-93.1 -291.6 -89.3 -339.5 -73.2 -367.8C-57 -396.1 -28.5 -404.9 0 -413.7L0 0Z"
            fill="#4f9fc8"></path>
        <path id="blob4"
            d="M-275.8 0C-258.9 -14.3 -242.1 -28.6 -242.1 -48.1C-242 -67.7 -258.8 -92.4 -242.8 -100.6C-226.8 -108.7 -178.1 -100.4 -161.6 -108C-145.2 -115.6 -161 -139.3 -167.7 -167.7C-174.4 -196.2 -171.9 -229.4 -153.2 -229.3C-134.5 -229.2 -99.6 -195.8 -80.8 -195.1C-62.1 -194.4 -59.5 -226.3 -48.8 -245.2C-38 -264.1 -19 -269.9 0 -275.8L0 0Z"
            fill="#97d9ea"></path>
        <path id="blob5"
            d="M-137.9 0C-129.5 -7.2 -121 -14.3 -121 -24.1C-121 -33.8 -129.4 -46.2 -121.4 -50.3C-113.4 -54.4 -89 -50.2 -80.8 -54C-72.6 -57.8 -80.5 -69.6 -83.9 -83.9C-87.2 -98.1 -86 -114.7 -76.6 -114.6C-67.2 -114.6 -49.8 -97.9 -40.4 -97.6C-31 -97.2 -29.8 -113.2 -24.4 -122.6C-19 -132 -9.5 -135 0 -137.9L0 0Z"
            fill="#bff6fd"></path>
    </g>
    <g class="visual2" transform="translate(0, 0)">
        <path id="blob6"
            d="M689.4 0C595.9 25.8 502.4 51.7 511 101.6C519.5 151.6 630.1 225.8 636.9 263.8C643.8 301.9 546.9 303.9 512.2 342.2C477.5 380.5 504.9 455.1 480.8 480.8C456.7 506.6 381 483.6 338.9 507.2C296.8 530.8 288.2 600.9 255.2 616.2C222.3 631.6 165 592.3 118.4 595.3C71.8 598.4 35.9 643.9 0 689.4L0 0Z"
            fill="#152b72"></path>
        <path id="blob7"
            d="M551.5 0C476.8 20.7 402 41.3 408.8 81.3C415.6 121.3 504.1 180.6 509.6 211.1C515 241.5 437.5 243.2 409.7 273.8C382 304.4 404 364 384.7 384.7C365.4 405.3 304.8 386.9 271.1 405.8C237.4 424.6 230.5 480.7 204.2 493C177.9 505.3 132 473.8 94.7 476.3C57.5 478.7 28.7 515.1 0 551.5L0 0Z"
            fill="#1765a2"></path>
        <path id="blob8"
            d="M413.7 0C357.6 15.5 301.5 31 306.6 61C311.7 91 378.1 135.5 382.2 158.3C386.3 181.1 328.1 182.4 307.3 205.3C286.5 228.3 303 273 288.5 288.5C274 304 228.6 290.2 203.3 304.3C178.1 318.5 172.9 360.5 153.1 369.7C133.4 379 99 355.4 71.1 357.2C43.1 359.1 21.5 386.4 0 413.7L0 0Z"
            fill="#4f9fc8"></path>
        <path id="blob9"
            d="M275.8 0C238.4 10.3 201 20.7 204.4 40.7C207.8 60.6 252 90.3 254.8 105.5C257.5 120.8 218.8 121.6 204.9 136.9C191 152.2 202 182 192.3 192.3C182.7 202.6 152.4 193.5 135.6 202.9C118.7 212.3 115.3 240.3 102.1 246.5C88.9 252.6 66 236.9 47.4 238.1C28.7 239.4 14.4 257.6 0 275.8L0 0Z"
            fill="#97d9ea"></path>
        <path id="blob10"
            d="M137.9 0C119.2 5.2 100.5 10.3 102.2 20.3C103.9 30.3 126 45.2 127.4 52.8C128.8 60.4 109.4 60.8 102.4 68.4C95.5 76.1 101 91 96.2 96.2C91.3 101.3 76.2 96.7 67.8 101.4C59.4 106.2 57.6 120.2 51 123.2C44.5 126.3 33 118.5 23.7 119.1C14.4 119.7 7.2 128.8 0 137.9L0 0Z"
            fill="#bff6fd"></path>
    </g>

    
    <g class="visual" transform="translate(1500, 1500)" style="visibility: hidden;">
        <path id="blob11"
            d="M-689.4 0C-603 -35.3 -516.5 -70.7 -461.9 -91.9C-407.4 -113.1 -384.8 -120.2 -415.7 -172.2C-446.7 -224.2 -531.1 -321 -514.7 -343.9C-498.3 -366.8 -381 -315.9 -350.7 -350.7C-320.4 -385.5 -377.1 -506 -370 -553.8C-362.9 -601.5 -292 -576.5 -244.2 -589.4C-196.3 -602.4 -171.4 -653.2 -134.5 -676.2C-97.6 -699.2 -48.8 -694.3 0 -689.4L0 0Z"
            fill="#152b72"></path>
        <path id="blob22"
            d="M-551.5 0C-482.4 -28.3 -413.2 -56.5 -369.6 -73.5C-325.9 -90.5 -307.9 -96.2 -332.6 -137.8C-357.3 -179.3 -424.9 -256.8 -411.7 -275.1C-398.6 -293.5 -304.8 -252.7 -280.6 -280.6C-256.3 -308.4 -301.7 -404.8 -296 -443C-290.3 -481.2 -233.6 -461.2 -195.3 -471.5C-157 -481.9 -137.1 -522.6 -107.6 -540.9C-78.1 -559.3 -39.1 -555.4 0 -551.5L0 0Z"
            fill="#1765a2"></path>
        <path id="blob33"
            d="M-413.7 0C-361.8 -21.2 -309.9 -42.4 -277.2 -55.1C-244.5 -67.9 -230.9 -72.1 -249.4 -103.3C-268 -134.5 -318.7 -192.6 -308.8 -206.3C-299 -220.1 -228.6 -189.6 -210.4 -210.4C-192.3 -231.3 -226.3 -303.6 -222 -332.3C-217.7 -360.9 -175.2 -345.9 -146.5 -353.7C-117.8 -361.4 -102.8 -391.9 -80.7 -405.7C-58.6 -419.5 -29.3 -416.6 0 -413.7L0 0Z"
            fill="#4f9fc8"></path>
        <path id="blob44" 
            d="M-275.8 0C-241.2 -14.1 -206.6 -28.3 -184.8 -36.8C-163 -45.2 -153.9 -48.1 -166.3 -68.9C-178.7 -89.7 -212.4 -128.4 -205.9 -137.6C-199.3 -146.7 -152.4 -126.4 -140.3 -140.3C-128.2 -154.2 -150.8 -202.4 -148 -221.5C-145.2 -240.6 -116.8 -230.6 -97.7 -235.8C-78.5 -240.9 -68.5 -261.3 -53.8 -270.5C-39.1 -279.7 -19.5 -277.7 0 -275.8L0 0Z"
            fill="#97d9ea"></path>
        <path id="blob55"
            d="M-137.9 0C-120.6 -7.1 -103.3 -14.1 -92.4 -18.4C-81.5 -22.6 -77 -24 -83.1 -34.4C-89.3 -44.8 -106.2 -64.2 -102.9 -68.8C-99.7 -73.4 -76.2 -63.2 -70.1 -70.1C-64.1 -77.1 -75.4 -101.2 -74 -110.8C-72.6 -120.3 -58.4 -115.3 -48.8 -117.9C-39.3 -120.5 -34.3 -130.6 -26.9 -135.2C-19.5 -139.8 -9.8 -138.9 0 -137.9L0 0Z"
            fill="#bff6fd"></path>
    </g>
    <g class="visual2" transform="translate(0, 0)" style="visibility: hidden;">
        <path id="blob66"
            d="M689.4 0C685.2 43.2 680.9 86.4 676.2 134.5C671.5 182.6 666.3 235.7 612.5 253.7C558.8 271.7 456.5 254.7 436.5 291.7C416.6 328.7 478.9 419.8 486.5 486.5C494.1 553.2 446.9 595.6 379.5 567.9C312.1 540.2 224.5 442.3 180.6 436.1C136.8 429.9 136.7 515.3 113.9 572.8C91.1 630.3 45.6 659.9 0 689.4L0 0Z"
            fill="#152b72"></path>
        <path id="blob77"
            d="M551.5 0C548.1 34.5 544.7 69.1 540.9 107.6C537.2 146.1 533 188.6 490 203C447 217.4 365.2 203.7 349.2 233.3C333.2 262.9 383.1 335.8 389.2 389.2C395.3 442.6 357.5 476.5 303.6 454.3C249.6 432.1 179.6 353.8 144.5 348.9C109.4 343.9 109.4 412.2 91.1 458.2C72.9 504.2 36.4 527.9 0 551.5L0 0Z"
            fill="#1765a2"></path>
        <path id="blob88"
            d="M413.7 0C411.1 25.9 408.5 51.8 405.7 80.7C402.9 109.6 399.8 141.4 367.5 152.2C335.3 163 273.9 152.8 261.9 175C249.9 197.2 287.3 251.9 291.9 291.9C296.4 331.9 268.1 357.4 227.7 340.7C187.2 324.1 134.7 265.4 108.4 261.6C82.1 257.9 82 309.2 68.4 343.7C54.7 378.2 27.3 395.9 0 413.7L0 0Z"
            fill="#4f9fc8"></path>
        <path id="blob99"
            d="M275.8 0C274.1 17.3 272.4 34.5 270.5 53.8C268.6 73.1 266.5 94.3 245 101.5C223.5 108.7 182.6 101.9 174.6 116.7C166.6 131.5 191.6 167.9 194.6 194.6C197.6 221.3 178.7 238.3 151.8 227.2C124.8 216.1 89.8 176.9 72.3 174.4C54.7 171.9 54.7 206.1 45.6 229.1C36.4 252.1 18.2 263.9 0 275.8L0 0Z"
            fill="#97d9ea"></path>
        <path id="blob1010"
            d="M137.9 0C137 8.6 136.2 17.3 135.2 26.9C134.3 36.5 133.3 47.1 122.5 50.7C111.8 54.3 91.3 50.9 87.3 58.3C83.3 65.7 95.8 84 97.3 97.3C98.8 110.6 89.4 119.1 75.9 113.6C62.4 108 44.9 88.5 36.1 87.2C27.4 86 27.3 103.1 22.8 114.6C18.2 126.1 9.1 132 0 137.9L0 0Z"
            fill="#bff6fd"></path>
    </g>
    <script>

        const tweet1 = KUTE.fromTo(
            "#blob1",
            { path: "#blob1" },
            { path: "#blob11 " },
            { repeat: 999, duration: 5000, yoyo: true }
        )
        tweet1.start()

        const tweet2 = KUTE.fromTo(
            "#blob2",
            { path: "#blob2" },
            { path: "#blob22 " },
            { repeat: 999, duration: 6000, yoyo: true }
        )
        tweet2.start()

        const tweet3 = KUTE.fromTo(
            "#blob3",
            { path: "#blob3" },
            { path: "#blob33 " },
            { repeat: 999, duration: 4000, yoyo: true }
        )
        tweet3.start()

        const tweet4 = KUTE.fromTo(
            "#blob4",
            { path: "#blob4" },
            { path: "#blob44 " },
            { repeat: 999, duration: 3000, yoyo: true }
        )
        tweet4.start()

        const tweet5 = KUTE.fromTo(
            "#blob5",
            { path: "#blob5" },
            { path: "#blob55 " },
            { repeat: 999, duration: 2000, yoyo: true }
        )
        tweet5.start()

        const tweet6 = KUTE.fromTo(
            "#blob6",
            { path: "#blob6" },
            { path: "#blob66 " },
            { repeat: 999, duration: 7000, yoyo: true }
        )
        tweet6.start()

        const tweet7 = KUTE.fromTo(
            "#blob7",
            { path: "#blob7" },
            { path: "#blob77 " },
            { repeat: 999, duration: 8000, yoyo: true }
        )
        tweet7.start()

        const tweet8 = KUTE.fromTo(
            "#blob8",
            { path: "#blob8" },
            { path: "#blob88 " },
            { repeat: 999, duration: 3000, yoyo: true }
        )
        tweet8.start()

        const tweet9 = KUTE.fromTo(
            "#blob9",
            { path: "#blob9" },
            { path: "#blob99 " },
            { repeat: 999, duration: 1000, yoyo: true }
        )
        tweet9.start()


        const tweet10 = KUTE.fromTo(
            "#blob10",
            { path: "#blob10" },
            { path: "#blob1010 " },
            { repeat: 999, duration: 5000, yoyo: true }
        )
        tweet10.start()
    </script>
    

</svg>

